<svg xmlns="http://www.w3.org/2000/svg" viewBox="0 0 333.77 68.87">
	<defs>
		<style>.cls-1{fill:#fff;}</style>
	</defs>
	<title>infinitec-Full-white</title>
	<g id="Layer_2" data-name="Layer 2">
		<g id="Layer_1-2" data-name="Layer 1">
			<!-- <path class="cls-1" d="M30.29,8,0,0,8.31,30.43A1.86,1.86,0,0,0,10,31.76l2.68.21a.8.8,0,0,0,.15,0l20.78,1.59-1.93-24A1.81,1.81,0,0,0,30.29,8Z"/>
			<path class="cls-1" d="M60.62,30.43,68.94,0,38.65,8a1.82,1.82,0,0,0-1.39,1.58l-1.93,24,23.6-1.83A1.85,1.85,0,0,0,60.62,30.43Z"/>
			<path class="cls-1" d="M58.93,37.11l-23.6-1.83,1.93,24a1.82,1.82,0,0,0,1.39,1.58l30.29,8L60.62,38.44A1.85,1.85,0,0,0,58.93,37.11Z"/>
			<path class="cls-1" d="M8.31,38.44,0,68.87l30.29-8a1.81,1.81,0,0,0,1.39-1.58l1.93-24L10,37.11A1.86,1.86,0,0,0,8.31,38.44Z"/> -->
			<path class="cls-1" d="M77.92,7.69H85.8A1.28,1.28,0,0,1,87.08,9V55.14a1.29,1.29,0,0,1-1.28,1.29H77.92a1.29,1.29,0,0,1-1.29-1.29V9A1.28,1.28,0,0,1,77.92,7.69Z"/><path class="cls-1" d="M125.44,24.12q4,3.9,4,12.88V55.14a1.28,1.28,0,0,1-1.28,1.29h-7.26a1.29,1.29,0,0,1-1.28-1.29V37.56q0-9.27-7.24-9.26a7.22,7.22,0,0,0-5.92,2.57q-2.09,2.58-2.09,7.24v17a1.28,1.28,0,0,1-1.28,1.29H95.88a1.28,1.28,0,0,1-1.28-1.29V21.92a1.28,1.28,0,0,1,1.28-1.28h7.28l.91,4.45a13.32,13.32,0,0,1,4.52-3.58,14.91,14.91,0,0,1,6.55-1.29A14.22,14.22,0,0,1,125.44,24.12Z"/><path class="cls-1" d="M208.08,24.12q4,3.9,4,12.88V55.14a1.28,1.28,0,0,1-1.28,1.29h-7.25a1.28,1.28,0,0,1-1.28-1.29V37.56q0-9.27-7.25-9.26a7.19,7.19,0,0,0-5.91,2.57c-1.4,1.72-2.09,4.13-2.09,7.24v17a1.29,1.29,0,0,1-1.28,1.29h-7.26a1.28,1.28,0,0,1-1.28-1.29V21.92a1.28,1.28,0,0,1,1.28-1.28h7.28l.91,4.45a13.26,13.26,0,0,1,4.53-3.58,14.83,14.83,0,0,1,6.54-1.29A14.21,14.21,0,0,1,208.08,24.12Z"/><path class="cls-1" d="M227.3,7.31a5.25,5.25,0,0,1,1.6,3.93,5.38,5.38,0,0,1-1.6,4,5.46,5.46,0,0,1-4,1.6,5.58,5.58,0,0,1-4.07-1.6,5.34,5.34,0,0,1-1.64-4,5.21,5.21,0,0,1,1.64-3.93,5.64,5.64,0,0,1,4.07-1.57A5.52,5.52,0,0,1,227.3,7.31Zm-7.7,13.33h7.25a1.28,1.28,0,0,1,1.28,1.28V55.14a1.28,1.28,0,0,1-1.28,1.29H219.6a1.28,1.28,0,0,1-1.28-1.29V21.92A1.28,1.28,0,0,1,219.6,20.64Z"/><path class="cls-1" d="M237.26,28.92v-17a1.28,1.28,0,0,1,1.28-1.28h7.25a1.28,1.28,0,0,1,1.28,1.28v8.75h6.87a1.28,1.28,0,0,1,1.28,1.28v5.72a1.28,1.28,0,0,1-1.28,1.28h-6.87V44.59a3.83,3.83,0,0,0,.8,2.71,3.6,3.6,0,0,0,2.68.84h3.81a1.28,1.28,0,0,1,1.28,1.28v5.72a1.29,1.29,0,0,1-1.28,1.29h-6.87a10.24,10.24,0,0,1-10.23-10.24Z"/><path class="cls-1" d="M260.06,28.89a15.88,15.88,0,0,1,6.33-6.41,19.22,19.22,0,0,1,9.44-2.26,20.75,20.75,0,0,1,9.57,2.12,16,16,0,0,1,6.48,6,17.83,17.83,0,0,1,2.4,9.09,18.52,18.52,0,0,1-.28,3.34H268V41a9.75,9.75,0,0,0,2.51,6.13,7.85,7.85,0,0,0,5.91,2.22,9,9,0,0,0,5-1.28,6.08,6.08,0,0,0,2.61-3.8h9.68A14.19,14.19,0,0,1,291,50.72a14.81,14.81,0,0,1-5.71,4.49,19.32,19.32,0,0,1-8.15,1.63,22.5,22.5,0,0,1-10.34-2.22,15.66,15.66,0,0,1-6.68-6.38,19.25,19.25,0,0,1-2.34-9.64A19.93,19.93,0,0,1,260.06,28.89Zm24.4,5.46a7.62,7.62,0,0,0-2.68-5,8.48,8.48,0,0,0-5.53-1.78,8.1,8.1,0,0,0-5.4,1.85,7.56,7.56,0,0,0-2.61,5Z"/><path class="cls-1" d="M328.5,53.12q-4.56,3.72-11.8,3.72A20.12,20.12,0,0,1,307,54.58a15.67,15.67,0,0,1-6.44-6.44,19.83,19.83,0,0,1-2.26-9.61,19.79,19.79,0,0,1,2.26-9.64A15.67,15.67,0,0,1,307,22.48a20.47,20.47,0,0,1,9.79-2.26q7.17,0,11.69,3.66a15.17,15.17,0,0,1,5.25,8.54A1.29,1.29,0,0,1,332.46,34h-7.63a1.25,1.25,0,0,1-1.2-.84,7.41,7.41,0,0,0-2.27-3.38,7.05,7.05,0,0,0-4.66-1.56,7.46,7.46,0,0,0-6.13,2.85,11.55,11.55,0,0,0-2.3,7.45,11.51,11.51,0,0,0,2.3,7.45,7.45,7.45,0,0,0,6.13,2.86,7,7,0,0,0,7-5.11,1.26,1.26,0,0,1,1.21-.88h7.55a1.29,1.29,0,0,1,1.26,1.57A15.31,15.31,0,0,1,328.5,53.12Z"/><path class="cls-1" d="M165.54,16.81a5.59,5.59,0,0,0,4.08-1.6,5.33,5.33,0,0,0,1.63-4,5.2,5.2,0,0,0-1.63-3.93,5.64,5.64,0,0,0-4.08-1.57,5.5,5.5,0,0,0-4,1.57,5.25,5.25,0,0,0-1.61,3.93,5.48,5.48,0,0,0,5.64,5.57Z"/><path class="cls-1" d="M160.6,28.92V56.43h9.82V21.92a1.28,1.28,0,0,0-1.28-1.28h-7.26a1.28,1.28,0,0,0-1.28,1.28Z"/><path class="cls-1" d="M154.29,20.64h-6.5V19a3,3,0,0,1,.7-2.23,3,3,0,0,1,2.22-.7h3.67a1.28,1.28,0,0,0,1.28-1.28V9a1.28,1.28,0,0,0-1.28-1.28h-5.62q-5.35,0-8.07,2.54T138,17.51V56.43h9.82V28.92h6.5a1.28,1.28,0,0,0,1.28-1.28V21.92A1.28,1.28,0,0,0,154.29,20.64Z"/></g></g></svg>